<?xml version="1.0" encoding="utf-8"?>
<!-- Generator: Adobe Illustrator 27.4.1, SVG Export Plug-In . SVG Version: 6.00 Build 0)  -->
<svg version="1.1"
	 id="svg23" xmlns:svg="http://www.w3.org/2000/svg" xmlns:sodipodi="http://sodipodi.sourceforge.net/DTD/sodipodi-0.dtd" xmlns:inkscape="http://www.inkscape.org/namespaces/inkscape"
	 xmlns="http://www.w3.org/2000/svg" xmlns:xlink="http://www.w3.org/1999/xlink" x="0px" y="0px" viewBox="0 0 308.8 304.9"
	 style="enable-background:new 0 0 308.8 304.9;" xml:space="preserve">
<style type="text/css">
	.st0{fill:#4B4B4B;}
</style>
<sodipodi:namedview  bordercolor="#000000" borderopacity="0.25" id="namedview25" inkscape:deskcolor="#d1d1d1" inkscape:pagecheckerboard="0" inkscape:pageopacity="0.0" inkscape:showpageshadow="2" pagecolor="#ffffff">
	</sodipodi:namedview>
<path d="M39.1,126.3c0.3,8.6,0.7,17.2,1,25.8c0.3,6.9,0.3,13.7,0.9,20.5c0.6,6.8,1.7,13.6,3,20.2c1,4.8,4.2,7.9,9.1,9.2
	c0.5,0.1,1,0.4,1.4,0.6c0.1,0,0.1,0.3,0.2,1c-17,0-33.9,0-51.3,0c0.6-0.6,1-1.4,1.6-1.6c7.5-2.1,11.5-7.5,12.4-14.9
	c1.2-9.7,2.3-19.5,2.5-29.2c0.4-27.8,0.3-55.6,0.3-83.4c0-3.7-0.6-7.5-1.5-11c-1.3-5.1-4.2-9.2-9.3-11.3c-0.4-0.2-0.7-0.5-1.6-1.1
	c1.2-0.2,1.8-0.3,2.5-0.3c31.3,0.1,62.5,0.2,93.8,0.5c9.9,0.1,19.7,1.4,29,5.4c10.3,4.4,18.7,10.9,21.9,22.2
	c3.1,11.3,0.6,21.3-7.7,29.7c-8.3,8.4-18.8,12.2-30.2,14.2c-4.2,0.7-8.5,1.1-13.4,1.8c8.8,2.6,16.6,6,23.6,11.1
	c9.8,7.1,17,16.2,21.2,27.5c3.9,10.4,6.9,21.1,10.9,31.5c3,7.7,6.4,15.3,10.6,22.4c12.5,20.8,31.1,31.1,55.4,31.9
	c9.4,0.3,18.2-1.3,26.9-4.3c2.4-0.8,4.8-2,7-3.3c5.9-3.6,9.6-8.8,9.9-15.9c0.3-10.8,0.5-21.5,0.5-32.3c0-3.9-2-7.1-4.9-9.7
	c-5.6-5-12.8-6.3-19.6-8.8c-0.9-0.3-1.7-0.8-2.4-1.7c20.7,0,41.4,0,62.5,0c-0.4,0.4-0.6,0.9-1,1.2c-0.3,0.3-0.8,0.4-1.2,0.5
	c-8.2,2.4-11.2,8.5-11.3,16.4c-0.1,12.9-0.1,25.8-0.1,38.7c0,2.1-0.7,3.4-2.4,4.6c-16.1,11.7-34.4,17-54,18.8
	c-17.2,1.5-33.8-0.7-49.7-7.3c-22.7-9.6-38.9-25.7-47.9-48.7c-4.8-12.2-9-24.7-13.3-37.2c-2.3-6.6-5.4-12.7-9.6-18.4
	c-6.3-8.5-14.6-13.9-25.1-14.5c-16.5-1-33.1-1.1-49.6-1.6C40,125.9,39.8,126,39.1,126.3z M39.4,120.9c0.9,0.1,1.5,0.1,2.1,0.1
	c14.1,0,28.1,0.2,42.2-0.1c6.7-0.2,13.5-1,20.1-2.3c15.4-3.1,24.5-12.4,26.8-26.7c2.3-14.5-4.1-26.3-17.3-31.7
	c-5.9-2.4-12.1-3.7-18.4-3.8c-17.5-0.3-35.1-0.5-52.6-0.7c-0.9,0-1.9,0-2.9,0C39.4,77.5,39.4,99,39.4,120.9z"/>
<path class="st0" d="M159.5,165.3c-3.4-10.5-8.2-19.2-15.3-26.6c-0.4-0.5-0.4-1.8,0-2.5c6-11.7,14.5-21,25.8-27.8
	c28.2-17,58-19.3,89.2-10.3c10.5,3,20.6,6.9,29.7,12.9c2.1,1.4,2.7,2.6,1.8,5.1c-2.2,5.9-4.1,11.9-6.1,17.9
	c-0.3,0.9-0.7,1.8-1.2,3.1c-0.7-1-1.3-1.6-1.6-2.4c-6.4-17.9-19.6-28.4-37.4-33.4c-15.6-4.4-31.3-4.5-46.6,1.9
	c-17.1,7.1-27.6,20.4-33.1,37.6c-2.4,7.3-3.2,15.1-4.8,22.6C159.8,163.9,159.7,164.2,159.5,165.3z"/>
</svg>
